<svg width="448" height="448" viewBox="0 0 448 448" fill="none" xmlns="http://www.w3.org/2000/svg">
<rect width="448" height="448" rx="12" fill="#191919"/>
<path d="M47.0065 161.85C48.1142 161.264 53.681 159.406 55.3643 158.77L78.3929 150.155L280.546 73.9112C285.024 72.2002 289.518 70.5392 293.975 68.7776C295.518 68.1677 296.975 67.5724 298.58 67.1333C300.26 70.6959 297.913 118.736 298.925 125.236C299.745 130.497 297.835 145.948 299.11 151.764C298.98 151.839 298.785 151.961 298.65 151.992C277.996 156.691 257.406 162.005 236.831 167.06L95.3099 202.323C90.9359 203.403 47.463 214.173 47.2236 214.053C46.4587 211.47 46.5845 195.252 46.6436 191.425C46.7854 182.243 46.2566 170.869 47.0065 161.85Z" fill="#FCFCFB"/>
<path d="M46.9873 244.018C53.0892 242.177 60.8492 240.491 67.1031 238.987L190.517 209.655C210.034 205.002 229.578 200.356 249.085 195.657C250.176 195.394 251.248 195.144 252.357 195.34C252.141 200.605 252.296 206.662 252.301 211.984L252.294 260.486C252.291 262.849 252.129 267.879 252.364 270.037C252.129 270.356 252.196 270.375 251.893 270.511C246.371 271.005 240.686 271.84 235.16 272.489C222.414 273.947 209.678 275.485 196.952 277.103L114.588 287.021L65.6393 292.979C61.6481 293.466 57.6531 293.92 53.6546 294.343C52.758 294.446 47.6348 295.188 47.081 295.012C46.5915 294.143 46.5217 248.168 46.9873 244.018Z" fill="#FCFCFB"/>
<path d="M183.775 312.477L400.808 329.91C401.663 333.275 401.195 347.157 401.185 351.352L401.373 380.702C395.138 380.175 385.34 380.46 378.823 380.502L350.995 380.437H201.749C198.786 380.44 185.291 380.202 183.453 380.592C183.898 379.712 183.572 319.245 183.775 312.477Z" fill="#A2A1A1"/>
<path d="M252.357 195.34C257.102 196.693 261.78 198.595 266.431 200.235C268.265 200.883 270.65 201.928 272.462 202.378C272.968 202.586 273.662 202.898 274.162 203.064C276.961 204.238 279.868 205.097 282.718 206.145L307.648 215.296L349.5 230.834C356.623 233.455 364.28 236.428 371.428 238.843L373.35 239.502C376.158 240.486 400.213 249.077 400.665 250.131C401.12 251.193 401.245 252.661 401.295 253.804C401.593 260.654 401.193 268.22 401.195 275.146C401.198 283.53 401.573 291.999 401.318 300.368L300.723 280.155L271.631 274.225C268.21 273.498 254.589 270.549 251.893 270.511C252.196 270.375 252.129 270.356 252.364 270.037C252.129 267.879 252.291 262.849 252.294 260.486L252.301 211.984C252.296 206.662 252.141 200.605 252.357 195.34Z" fill="#A2A1A1"/>
<path d="M46.964 380.867C46.6568 378.745 46.829 375.777 46.8364 373.535L46.8088 361.442L46.7265 336.627C46.72 334.27 46.5689 326.182 46.9954 324.377C47.7746 323.87 49.0382 323.792 49.9935 323.695C79.2577 320.89 108.552 318.405 137.871 316.242L170.962 313.5C175.015 313.19 179.83 312.512 183.775 312.477C183.572 319.245 183.898 379.712 183.453 380.592C181.985 380.83 173.885 380.71 171.877 380.71L86.2039 380.722C73.2629 380.722 59.8783 380.582 46.964 380.867Z" fill="#FCFCFB"/>
<path d="M298.58 67.1333C301.113 68.3835 322.473 90.7084 326.205 94.4699L381.243 149.687C383.688 152.153 400.16 168.03 400.858 169.761C401.63 171.679 401.358 215.192 401.073 220.518C368.895 199.371 337.163 177.226 305.035 155.975C303.41 154.9 300.633 152.601 299.11 151.764C297.835 145.948 299.745 130.497 298.925 125.236C297.913 118.736 300.26 70.6959 298.58 67.1333Z" fill="#A2A1A1"/>
</svg>
